<svg xmlns="http://www.w3.org/2000/svg" xmlns:xlink="http://www.w3.org/1999/xlink" version="1.1" width="1000" height="1000" viewBox="0 0 1000 1000" xml:space="preserve">
<desc>Created with Fabric.js 3.5.0</desc>
<defs>
</defs>
<rect x="0" y="0" width="100%" height="100%" fill="#ffffff"/>
<g transform="matrix(5.0197 0 0 5.0197 500.0003 500.0003)" id="629671">
<g style="" vector-effect="non-scaling-stroke">
		<g transform="matrix(1 0 0 1 0 0.1)" id="logosandtypes_com">
<path style="stroke: none; stroke-width: 1; stroke-dasharray: none; stroke-linecap: butt; stroke-dashoffset: 0; stroke-linejoin: miter; stroke-miterlimit: 4; is-custom-font: none; font-file-url: none; fill: none; fill-rule: nonzero; opacity: 1;" transform=" translate(-75, -75.2)" d="M 0 0.2 h 150 v 150 H 0 V 0.2 z" stroke-linecap="round"/>
</g>
		<g transform="matrix(1 0 0 1 -0.1966 -1.2232)" id="logosandtypes_com">
<path style="stroke: none; stroke-width: 1; stroke-dasharray: none; stroke-linecap: butt; stroke-dashoffset: 0; stroke-linejoin: miter; stroke-miterlimit: 4; is-custom-font: none; font-file-url: none; fill: rgb(226,0,16); fill-rule: nonzero; opacity: 1;" transform=" translate(-74.8034, -73.8768)" d="M 93.1 12 c -16.5 1.2 -28.7 7.6 -40.5 14.3 c -7.3 4.1 -14.2 9 -20.5 14.5 c -5.7 5 -10.7 10.2 -15 16.5 c -6.5 9.6 -9.3 25.4 2.4 31.5 c 12.6 6.6 25.1 -4.1 32.6 -9.9 c 6.6 -5.1 13.7 -9.9 20.8 -14.5 c 8.3 -5.4 17.3 -12.2 28.4 -14.5 c 21.8 -4.6 21.4 20.1 14.5 34.2 c -3.7 7.6 -9 13.4 -14.5 19.2 c -5 5.3 -10.6 10.2 -16.5 14.5 c -4.5 3.3 -20.9 17.8 -28.7 13.9 c -8 -4 7.7 -17.8 10.4 -20.6 c 5.2 -5.2 17.2 -19.7 -0.5 -20.3 c -12.1 -0.4 -18.6 10.5 -22.2 18.9 c -8 18.4 2 31.1 22.8 24.4 c 9.7 -3.1 18.4 -9 26 -14.5 c 6.1 -4.4 12.4 -9.3 17.8 -14.5 c 5.4 -5.1 10.2 -10.8 14.5 -16.9 c 2.8 -4 5.2 -8.3 7.2 -12.8 c 3.9 -8.8 7.4 -19.2 5.5 -32.1 c -1.7 -12 -7.5 -19.5 -16.1 -24.7 c -7.4 -4.5 -15.9 -7.5 -28.4 -6.6 z" stroke-linecap="round"/>
</g>
</g>
</g>
</svg>