<svg id="logosandtypes_com" xmlns="http://www.w3.org/2000/svg" viewBox="0 0 150 150.2"><path d="M0 .2h150v150H0V.2z" fill="none"/><path d="M93.1 12c-16.5 1.2-28.7 7.6-40.5 14.3-7.3 4.1-14.2 9-20.5 14.5-5.7 5-10.7 10.2-15 16.5-6.5 9.6-9.3 25.4 2.4 31.5 12.6 6.6 25.1-4.1 32.6-9.9 6.6-5.1 13.7-9.9 20.8-14.5 8.3-5.4 17.3-12.2 28.4-14.5 21.8-4.6 21.4 20.1 14.5 34.2-3.7 7.6-9 13.4-14.5 19.2-5 5.3-10.6 10.2-16.5 14.5-4.5 3.3-20.9 17.8-28.7 13.9-8-4 7.7-17.8 10.4-20.6 5.2-5.2 17.2-19.7-.5-20.3-12.1-.4-18.6 10.5-22.2 18.9-8 18.4 2 31.1 22.8 24.4 9.7-3.1 18.4-9 26-14.5 6.1-4.4 12.4-9.3 17.8-14.5 5.4-5.1 10.2-10.8 14.5-16.9 2.8-4 5.2-8.3 7.2-12.8 3.9-8.8 7.4-19.2 5.5-32.1-1.7-12-7.5-19.5-16.1-24.7-7.4-4.5-15.9-7.5-28.4-6.6z" fill="#e20010"/></svg>