<svg xmlns="http://www.w3.org/2000/svg" xmlns:xlink="http://www.w3.org/1999/xlink" version="1.1" width="1000" height="1000" viewBox="0 0 1000 1000" xml:space="preserve">
<desc>Created with Fabric.js 3.5.0</desc>
<defs>
</defs>
<rect x="0" y="0" width="100%" height="100%" fill="#ffffff"/>
<g transform="matrix(0.2954 0 0 0.2954 499.9687 499.9712)" id="389817">
<g style="" vector-effect="non-scaling-stroke">
		<g transform="matrix(5.923 0 0 5.923 0.0018 836.3415)">
<path style="stroke: none; stroke-width: 1; stroke-dasharray: none; stroke-linecap: butt; stroke-dashoffset: 0; stroke-linejoin: miter; stroke-miterlimit: 4; is-custom-font: none; font-file-url: none; fill: rgb(72,106,174); fill-rule: nonzero; opacity: 1;" transform=" translate(-225.658, -339.3505)" d="m 14.616 286.732 h 101.614 v 30.922 h -29.151 v 74.315 h -42.342 v -74.315 h -30.121 z m 153.076 42.52 l -21.394 62.717 h -40.663 l 39.881 -105.237 h 44.161 l 40.842 105.237 h -41.163 z m 53.113 -42.52 h 101.61 v 30.922 h -29.142 v 74.315 h -42.34 v -74.315 h -30.128 z m 153.09 42.52 l -21.402 62.717 h -40.663 l 39.894 -105.237 h 44.148 l 40.828 105.237 h -41.148 z" stroke-linecap="round"/>
</g>
		<g transform="matrix(5.923 0 0 5.923 0.7475 -414.5495)">
<path style="stroke: none; stroke-width: 1; stroke-dasharray: none; stroke-linecap: butt; stroke-dashoffset: 0; stroke-linejoin: miter; stroke-miterlimit: 4; is-custom-font: none; font-file-url: none; fill: rgb(72,106,174); fill-rule: evenodd; opacity: 1;" transform=" translate(-225.784, -128.158)" d="m 375.394 93.432 c -3.794 -7.461 -8.791 -14.612 -15.007 -21.318 c -13.969 -15.077 -33.678 -27.623 -57.002 -36.276 c -23.516 -8.72 -50.338 -13.334 -77.595 -13.334 s -54.079 4.614 -77.583 13.334 c -23.336 8.654 -43.046 21.2 -57.015 36.276 c -6.212 6.705 -11.225 13.866 -15.018 21.331 c 30.365 -7.343 82.306 -17.038 130.534 -18.063 c 4.652 -0.1 7.855 1.39 9.964 4.063 c 2.569 3.255 2.376 14.858 2.313 20.049 l -1.371 134.17 c 2.716 0.09 5.445 0.148 8.176 0.148 c 2.754 0 5.498 -0.045 8.214 -0.135 l -1.371 -134.184 c -0.071 -5.19 -0.27 -16.794 2.308 -20.049 c 2.114 -2.672 5.306 -4.162 9.957 -4.063 c 48.208 1.017 100.137 10.714 130.496 18.051" stroke-linecap="round"/>
</g>
		<g transform="matrix(5.923 0 0 5.923 0.7654 -209.8543)">
<path style="stroke: none; stroke-width: 1; stroke-dasharray: none; stroke-linecap: butt; stroke-dashoffset: 0; stroke-linejoin: miter; stroke-miterlimit: 4; is-custom-font: none; font-file-url: none; fill: rgb(72,106,174); fill-rule: evenodd; opacity: 1;" transform=" translate(-225.787, -162.7175)" d="m 381.877 110.88 c -44.442 -10.047 -74.121 -11.905 -103.405 -13.53 c -25.526 -1.419 -25.859 7.696 -23.311 25.115 c 0.167 1.063 0.372 2.403 0.615 3.931 c 8.562 50.712 19.224 94.352 21.056 101.759 c 62.23 -14.225 107.109 -53.664 107.109 -99.994 c 0 -5.834 -0.705 -11.614 -2.064 -17.281 m -185.434 11.585 c 2.551 -17.418 2.224 -26.534 -23.299 -25.115 c -29.294 1.625 -58.98 3.482 -103.439 13.536 c -1.358 5.667 -2.072 11.44 -2.072 17.274 c 0 20.024 8.146 39.4 23.56 56.047 c 13.969 15.077 33.679 27.623 57.015 36.282 c 8.446 3.127 17.359 5.69 26.54 7.74 c 1.723 -6.939 12.63 -51.487 21.285 -103.106 c 0.16 -0.989 0.308 -1.902 0.41 -2.658" stroke-linecap="round"/>
</g>
</g>
</g>
</svg>