<?xml version="1.0" encoding="UTF-8"?>
<svg width="20px" height="20px" viewBox="0 0 20 20" version="1.1" xmlns="http://www.w3.org/2000/svg" xmlns:xlink="http://www.w3.org/1999/xlink">
    <title>SVG Presentify</title>
    <g id="SVG-Presentify" stroke="none" stroke-width="1" fill="none" fill-rule="evenodd">
        <path d="M16.4285714,4 C17.0203051,4 17.5,4.3960558 17.5,4.88461538 L17.5,14.6153846 C17.5,15.1039442 17.0203051,15.5 16.4285714,15.5 L3.57142857,15.5 C2.97969491,15.5 2.5,15.1039442 2.5,14.6153846 L2.5,4.88461538 C2.5,4.3960558 2.97969491,4 3.57142857,4 L16.4285714,4 Z M15,7 L5,7 C4.44771525,7 4,7.44771525 4,8 L4,13 C4,13.5522847 4.44771525,14 5,14 L15,14 C15.5522847,14 16,13.5522847 16,13 L16,8 C16,7.44771525 15.5522847,7 15,7 Z" id="Rectangle" fill="#000000" fill-rule="nonzero"></path>
        <rect id="Rectangle" fill="#000000" x="8" y="2" width="4" height="1" rx="0.5"></rect>
        <line x1="10" y1="15" x2="6.74730881" y2="18.2526912" id="Path-2" stroke="#000000" stroke-width="1.5" stroke-linecap="round"></line>
        <line x1="10" y1="15" x2="13.2526912" y2="18.2526912" id="Path-3" stroke="#000000" stroke-width="1.5" stroke-linecap="round"></line>
    </g>
</svg>